<svg xmlns="http://www.w3.org/2000/svg" viewBox="0 0 56.71 54.56"><title>th_Logo</title><path d="M102.19,83.57L96,77.62l-1.15-.11-5.27-4.43-4.78.52-0.4,0h0l-0.78.09-3.77-5.23-3-1.15L75.42,65.2l0.61-2L78.14,63,80,61.38l2.76,0.18,1.76-5L84.17,54,82.75,50.8l1.86-3L82.76,46l0.15-1.72H78.68l-0.07.92-0.6.34L77.57,45l-3,5.91,2.69,1.65,0,1.91L73,55.11,71.64,57,70,56.81l-2.11,1-2.11-.43-0.32.1-0.11-.6-4.67-1.54-3.38,1.3-0.43.89L56.07,57,53.8,55.76,53.52,53,56,48.46l-1.54-.75,0.16-.42L52,44.56l-0.38.62-0.44-.23-2.06,1.12,0.17,1.23-0.75.49,0.95,3.09-0.13,1.37,0,0.21-3.8,7.46,1.8,3.35,3.61,0.67,1.41,1.28L54.79,66l2.28-.44,1,1.65,0.86,0.22-1.48.29-6.57,3.8,2.17,4,4.73,3.19-8.72,4.8h18L66.2,79.36l0.53,0.24L66,78.22,65.91,78l-0.18-.17-1.84-3.3,1.73,0.32,2.09-1.11,2.55,0.2,5.8,4.76,7.2,1,2.49,1.46h0.47l-6.65,2.48h22.63Zm-16-4-2.41-1.41-7.07-.93-5.84-4.79-3.48-.27-2,1.07-6.9-1.28L61.3,73l1.82,3.26-2.57-1.15,3.94,3.63L65.17,82H55.08l5.68-3.13-6.51-4.39L53,72.15l5-2.92,5.14-1L66.73,69l-5.65-2.55-2-.51-2-3.2-0.22,1.36-2,.38-1.78-.59-1.5-1.36-3.31-.61-1.07-2,3.57-7L51,50.72l-0.7-2.28,0.44-.29L51,49l-0.29-2.07,0.41-.22L51.68,47v1l0.49-.8,0.66,0.76-0.48,2.28,1-1.31,0.53,0.25-1.94,3.57,0.73,7.11,0.21-1.94,1-.44,1.41,0.87,1,0.61,1,1.39-0.46-1.25,1.5,0.19,0.44,1.57-0.21-2.12,0.21-.93,2.1-.81L64,58.05l0.38,2.06-0.26,2.6,0.73-2.85-0.16-.55L65.89,59l2.23,0.46,2.16-1,1.48,0.21L71,60.7l2.85-4.17,4.67-.74,0.39,2.26-0.16-6.41-0.11-.07-2.18-1.34,0.21-.53,1.84,0.71-1.33-1.63,0.54-1,1.17,1.63-0.61-2.28,1-.58,0.61,1.87,0.19-2.62h1.12L81,48,82,47.41,82.64,48,81,50.69l1.67,3.74,0.31,2-1.25,3.54-2.22-.15-2,1.73-2.65.24-1.73,5.64L74,65.92l1.84,2.71,3,1.16L82.62,75l-2.07.72L85,75.14h0l4.13-.45L94.27,79l1.09,0.1,3,2.92H88.12l2.76-1V79.65Z" transform="translate(-45.48 -29)" style="fill:none"/><path d="M65.89,59l-1.16.35,0.16,0.55-0.73,2.85,0.26-2.6L64,58.05,60.75,57l-2.1.81-0.21.93,0.21,2.12-0.44-1.57-1.5-.19,0.46,1.25-1-1.39-1-.61-1.41-.87-1,.44-0.21,1.94-0.73-7.11,1.94-3.57-0.53-.25-1,1.31,0.48-2.28-0.66-.76-0.49.8V47l-0.53-.27-0.41.22L51,49l-0.29-.83-0.44.29L51,50.72l-0.2,2.18-3.57,7,1.07,2,3.31,0.61,1.5,1.36,1.78,0.59,2-.38,0.22-1.36,2,3.2,2,0.51L66.73,69l-3.58-.76-5.14,1-5,2.92,1.28,2.36,6.51,4.39L55.08,82H65.17L64.5,78.76l-3.94-3.63,2.57,1.15L61.3,73l-2.84-1.1,6.9,1.28,2-1.07,3.48,0.27,5.84,4.79,7.07,0.93,2.41,1.41,4.69,0.1V81l-2.76,1H98.38l-3-2.92L94.27,79l-5.13-4.32L85,75.13h0l-4.45.54L82.62,75,78.9,69.79l-3-1.16L74,65.92l-0.91,1.49,1.73-5.64,2.65-.24,2-1.73,2.22,0.15L83,56.4l-0.31-2L81,50.69,82.64,48,82,47.41,81,48l0.19-2.11H80.11l-0.19,2.62-0.61-1.87-1,.58,0.61,2.28-1.17-1.63-0.54,1,1.33,1.63-1.84-.71-0.21.53,2.18,1.34,0.11,0.07,0.16,6.41-0.39-2.26-4.67.74L71,60.7l0.75-2.09-1.48-.21-2.16,1" transform="translate(-45.48 -29)" style="fill:#eaeaea"/><path d="M64.88,29A16.83,16.83,0,0,0,49.31,52.25l0.13-1.37-0.95-3.09,0.75-.49-0.17-1.23,2.06-1.12,0.44,0.23L52,44.56l2.65,2.73-0.16.42L56,48.46,53.52,53l0.28,2.73L56.07,57l0.83,0.52,0.43-.89,3.38-1.3,4.67,1.54,0.11,0.6,0.32-.1,2.11,0.43,2.11-1L71.64,57,73,55.11l4.32-.69,0-1.91-2.69-1.65,3-5.91L78,45.56l0.6-.34,0.07-.92h3A16.84,16.84,0,0,0,64.88,29ZM56.66,42.1v1.78h1.47a0.5,0.5,0,1,1,0,1H56.77a1,1,0,0,1-.89-0.37,1,1,0,0,1-.22-0.75V42.18c0-.52-0.13-0.69-0.66-0.69H54.19a0.5,0.5,0,0,1,0-1H55c0.53,0,.66-0.17.66-0.69V38.22a1,1,0,0,1,.22-0.75,1,1,0,0,1,.89-0.37h1.36a0.5,0.5,0,1,1,0,1H56.66v1.79a1.44,1.44,0,0,1-.4,1.1A1.54,1.54,0,0,1,56.66,42.1Zm5.7,3a2.37,2.37,0,0,1-1.65-.64,2.05,2.05,0,0,1-.7-1.58V38.67H60.4v1.79h1.87v0.39H60.4v2a1.69,1.69,0,0,0,.58,1.3,2,2,0,0,0,1.39.53,2.06,2.06,0,0,0,1-.21,2.15,2.15,0,0,0,.72-0.65L64.37,44A2.26,2.26,0,0,1,62.36,45.06Zm7.11-.17H69.08V42.52a2,2,0,0,0-.39-1.24,1.81,1.81,0,0,0-1.53-.66,1.87,1.87,0,0,0-1.19.46,2.47,2.47,0,0,0-.8,1.13v2.67H64.78v-7h0.39v3.54A2.74,2.74,0,0,1,66,40.56a2.24,2.24,0,0,1,1.16-.33A2.11,2.11,0,0,1,69,41a2.38,2.38,0,0,1,.49,1.48v2.36Zm6-3.4H74.67c-0.53,0-.66.17-0.66,0.69v1.58a1,1,0,0,1-.22.75,1,1,0,0,1-.89.37H71.54a0.5,0.5,0,0,1,0-1H73V42.1a1.54,1.54,0,0,1,.4-1.11,1.44,1.44,0,0,1-.4-1.1V38.1H71.54a0.5,0.5,0,0,1,0-1H72.9a1,1,0,0,1,.89.37,1,1,0,0,1,.22.75V39.8c0,0.52.13,0.69,0.66,0.69h0.81A0.5,0.5,0,1,1,75.48,41.49Z" transform="translate(-45.48 -29)" style="fill:#eaeaea"/></svg>
